<svg width="22" height="22" viewBox="0 0 22 22" fill="none" xmlns="http://www.w3.org/2000/svg">
<path d="M5.5 5.5C5.93394 5.06606 6.52023 4.9488 6.80952 5.23809L11 9.42857L15.1905 5.2381C15.4798 4.9488 16.0661 5.06606 16.5 5.5C16.9339 5.93394 17.0512 6.52023 16.7619 6.80952L12.5714 11L16.7619 15.1905C17.0512 15.4798 16.9339 16.0661 16.5 16.5C16.0661 16.9339 15.4798 17.0512 15.1905 16.7619L11 12.5714L6.80952 16.7619C6.52023 17.0512 5.93394 16.9339 5.5 16.5C5.06606 16.0661 4.9488 15.4798 5.23809 15.1905L9.42857 11L5.2381 6.80952C4.9488 6.52023 5.06606 5.93394 5.5 5.5Z" fill="white"/>
</svg>
